<svg width="32" height="32" viewBox="0 0 32 32" fill="none" xmlns="http://www.w3.org/2000/svg">
<path d="M16 27.923C15.465 27.923 14.9919 27.782 14.5808 27.4999C14.1697 27.2179 13.8821 26.8478 13.718 26.3896H13.3334C12.7881 26.3896 12.3184 26.1926 11.9244 25.7986C11.5304 25.4046 11.3334 24.935 11.3334 24.3897V20.0154C9.98811 19.2 8.92956 18.1068 8.15776 16.7359C7.38596 15.3649 7.00006 13.8974 7.00006 12.3333C7.00006 9.82396 7.87271 7.69662 9.61799 5.95131C11.3633 4.20602 13.4907 3.33337 16 3.33337C18.5094 3.33337 20.6368 4.20602 22.3821 5.95131C24.1273 7.69662 25 9.82396 25 12.3333C25 13.9248 24.6141 15.3991 23.8423 16.7564C23.0705 18.1137 22.012 19.2 20.6667 20.0154V24.3897C20.6667 24.935 20.4697 25.4046 20.0756 25.7986C19.6816 26.1926 19.212 26.3896 18.6667 26.3896H18.2821C18.118 26.8478 17.8304 27.2179 17.4193 27.4999C17.0082 27.782 16.5351 27.923 16 27.923ZM13.3334 24.3897H18.6667V23.1384H13.3334V24.3897ZM13.3334 21.9589H18.6667V20.6666H13.3334V21.9589ZM13.0667 18.6667H15.2052V14.7846L12.3488 11.9282L13.4667 10.8103L16 13.3436L18.5334 10.8103L19.6513 11.9282L16.7949 14.7846V18.6667H18.9334C20.1334 18.0889 21.1111 17.2389 21.8667 16.1167C22.6223 14.9945 23 13.7333 23 12.3333C23 10.3778 22.3223 8.72223 20.9667 7.36667C19.6111 6.01112 17.9556 5.33334 16 5.33334C14.0445 5.33334 12.3889 6.01112 11.0334 7.36667C9.67781 8.72223 9.00003 10.3778 9.00003 12.3333C9.00003 13.7333 9.37781 14.9945 10.1334 16.1167C10.8889 17.2389 11.8667 18.0889 13.0667 18.6667Z" fill="#00DC5D"/>
</svg>
