<svg width="19" height="19" viewBox="0 0 19 19" fill="none" xmlns="http://www.w3.org/2000/svg">
<path d="M18.1543 7.37093H17.4167V7.33333H9.16667V11H14.348C13.5907 13.1341 11.5604 14.6667 9.16667 14.6667C6.12842 14.6667 3.66667 12.2049 3.66667 9.16667C3.66667 6.12842 6.12842 3.66667 9.16667 3.66667C10.5685 3.66667 11.8451 4.19482 12.8154 5.05957L15.4079 2.46712C13.7715 0.941732 11.5819 0 9.16667 0C4.10352 0 0 4.10352 0 9.16667C0 14.2298 4.10352 18.3333 9.16667 18.3333C14.2298 18.3333 18.3333 14.2298 18.3333 9.16667C18.3333 8.55257 18.2707 7.9528 18.1543 7.37093Z" fill="#FFC107"/>
<path d="M1.0564 4.90023L4.06958 7.10954C4.8842 5.0918 6.85718 3.66667 9.16675 3.66667C10.5686 3.66667 11.8451 4.19482 12.8155 5.05957L15.408 2.46712C13.7716 0.941732 11.582 0 9.16675 0C5.6451 0 2.59253 1.98731 1.0564 4.90023Z" fill="#FF3D00"/>
<path d="M9.16659 18.3333C11.5334 18.3333 13.6855 17.4274 15.3129 15.9539L12.4752 13.553C11.5549 14.2495 10.4109 14.6666 9.16659 14.6666C6.78182 14.6666 4.75871 13.1466 3.99601 11.025L1.0061 13.3274C2.52254 16.2959 5.60376 18.3333 9.16659 18.3333Z" fill="#4CAF50"/>
<path d="M18.1544 7.37097H17.4167V7.33337H9.16675V11H14.3481C13.9846 12.0259 13.324 12.9086 12.4736 13.5531C12.4753 13.5531 12.4753 13.5531 12.4753 13.5531L15.3131 15.954C15.1125 16.1348 18.3334 13.75 18.3334 9.16671C18.3334 8.55261 18.2708 7.95284 18.1544 7.37097Z" fill="#1976D2"/>
</svg>
