<svg width="32" height="32" viewBox="0 0 32 32" fill="none" xmlns="http://www.w3.org/2000/svg">
<path d="M16 20C17.1111 20 18.0556 19.6112 18.8333 18.8334C19.6111 18.0556 20 17.1112 20 16C20 14.8889 19.6111 13.9445 18.8333 13.1667C18.0556 12.3889 17.1111 12 16 12C14.8889 12 13.9444 12.3889 13.1667 13.1667C12.3889 13.9445 12 14.8889 12 16C12 17.1112 12.3889 18.0556 13.1667 18.8334C13.9444 19.6112 14.8889 20 16 20ZM16 22C14.3351 22 12.9188 21.4163 11.7513 20.2487C10.5838 19.0812 10 17.665 10 16C10 14.3351 10.5838 12.9189 11.7513 11.7513C12.9188 10.5838 14.3351 10.0001 16 10.0001C17.6649 10.0001 19.0812 10.5838 20.2487 11.7513C21.4162 12.9189 22 14.3351 22 16C22 17.665 21.4162 19.0812 20.2487 20.2487C19.0812 21.4163 17.6649 22 16 22ZM2.66667 17C2.38333 17 2.14584 16.9041 1.9542 16.7124C1.76251 16.5207 1.66667 16.2831 1.66667 15.9996C1.66667 15.7161 1.7625 15.4787 1.95417 15.2872C2.14581 15.0958 2.3833 15.0001 2.66663 15.0001H5.66667C5.94998 15.0001 6.18747 15.0959 6.37913 15.2877C6.57082 15.4794 6.66667 15.717 6.66667 16.0005C6.66667 16.2839 6.57083 16.5214 6.37917 16.7128C6.1875 16.9043 5.95001 17 5.6667 17H2.66667ZM26.3333 17C26.05 17 25.8125 16.9041 25.6208 16.7124C25.4292 16.5207 25.3333 16.2831 25.3333 15.9996C25.3333 15.7161 25.4292 15.4787 25.6208 15.2872C25.8125 15.0958 26.05 15.0001 26.3333 15.0001H29.3333C29.6167 15.0001 29.8542 15.0959 30.0458 15.2877C30.2375 15.4794 30.3333 15.717 30.3333 16.0005C30.3333 16.2839 30.2375 16.5214 30.0458 16.7128C29.8542 16.9043 29.6167 17 29.3333 17H26.3333ZM15.9996 6.66672C15.7161 6.66672 15.4786 6.57088 15.2872 6.37922C15.0958 6.18755 15 5.95006 15 5.66675V2.66672C15 2.38338 15.0959 2.14588 15.2876 1.95422C15.4794 1.76257 15.717 1.66675 16.0004 1.66675C16.2839 1.66675 16.5214 1.76257 16.7128 1.95422C16.9042 2.14588 17 2.38338 17 2.66672V5.66675C17 5.95006 16.9041 6.18755 16.7124 6.37922C16.5206 6.57088 16.283 6.66672 15.9996 6.66672ZM15.9996 30.3334C15.7161 30.3334 15.4786 30.2375 15.2872 30.0458C15.0958 29.8542 15 29.6167 15 29.3334V26.3333C15 26.05 15.0959 25.8125 15.2876 25.6209C15.4794 25.4292 15.717 25.3334 16.0004 25.3334C16.2839 25.3334 16.5214 25.4292 16.7128 25.6209C16.9042 25.8125 17 26.05 17 26.3333V29.3334C17 29.6167 16.9041 29.8542 16.7124 30.0458C16.5206 30.2375 16.283 30.3334 15.9996 30.3334ZM8.00773 9.38718L6.3308 7.75641C6.13251 7.57179 6.03678 7.33975 6.0436 7.06028C6.05044 6.78079 6.14748 6.53764 6.3347 6.33081C6.53892 6.12397 6.77863 6.02055 7.05383 6.02055C7.32905 6.02055 7.56324 6.12397 7.7564 6.33081L9.4 7.99495C9.59315 8.20179 9.68973 8.43598 9.68973 8.69752C9.68973 8.95905 9.59529 9.19323 9.4064 9.40005C9.21753 9.60687 8.98891 9.70473 8.72053 9.69361C8.45215 9.6825 8.21455 9.58034 8.00773 9.38718ZM24.2436 25.6692L22.6 24.0051C22.4068 23.7983 22.3103 23.5607 22.3103 23.2923C22.3103 23.024 22.4068 22.7932 22.6 22.6C22.7803 22.3932 23.0058 22.2954 23.2763 22.3065C23.5468 22.3176 23.7854 22.4197 23.9923 22.6129L25.6692 24.2436C25.8675 24.4283 25.9632 24.6603 25.9564 24.9398C25.9496 25.2193 25.8525 25.4624 25.6653 25.6692C25.4611 25.8761 25.2214 25.9795 24.9462 25.9795C24.6709 25.9795 24.4368 25.8761 24.2436 25.6692ZM22.6 9.40645C22.3932 9.21758 22.2953 8.98896 22.3064 8.72058C22.3175 8.4522 22.4197 8.2146 22.6128 8.00778L24.2436 6.33085C24.4282 6.13256 24.6603 6.03683 24.9397 6.04365C25.2192 6.05049 25.4624 6.14753 25.6692 6.33475C25.876 6.53897 25.9795 6.77868 25.9795 7.05388C25.9795 7.3291 25.876 7.56329 25.6692 7.75645L24.0051 9.40005C23.7983 9.5932 23.5641 9.68978 23.3025 9.68978C23.041 9.68978 22.8068 9.59534 22.6 9.40645ZM6.3308 25.672C6.12395 25.4634 6.02053 25.2214 6.02053 24.9462C6.02053 24.671 6.12395 24.4368 6.3308 24.2436L7.9949 22.6C8.20174 22.4069 8.43934 22.3103 8.7077 22.3103C8.97608 22.3103 9.20684 22.4069 9.4 22.6C9.59829 22.7804 9.69188 23.0058 9.68077 23.2763C9.66965 23.5468 9.57179 23.7855 9.38717 23.9923L7.7564 25.6692C7.56324 25.8761 7.32905 25.9761 7.05383 25.9692C6.77863 25.9624 6.53762 25.8634 6.3308 25.672Z" fill="#00DC5D"/>
</svg>
