<svg width="208" height="32" viewBox="0 0 208 32" fill="none" xmlns="http://www.w3.org/2000/svg">
<path d="M56.5991 24C56.4068 24 56.2493 23.9388 56.1269 23.8164C56.0045 23.6939 55.9433 23.5365 55.9433 23.3442V6.29228C55.9433 6.0999 56.0045 5.94249 56.1269 5.82007C56.2493 5.69765 56.4068 5.63643 56.5991 5.63643H68.8503C69.0426 5.63643 69.2 5.69765 69.3225 5.82007C69.4449 5.94249 69.5061 6.0999 69.5061 6.29228V8.75824C69.5061 8.95062 69.4449 9.10802 69.3225 9.23045C69.2 9.35287 69.0426 9.41408 68.8503 9.41408H60.4817V12.9556H68.2731C68.4655 12.9556 68.6229 13.0256 68.7453 13.1655C68.8677 13.2879 68.929 13.4453 68.929 13.6377V15.92C68.929 16.0949 68.8677 16.2523 68.7453 16.3922C68.6229 16.5147 68.4655 16.5759 68.2731 16.5759H60.4817V20.2224H69.0601C69.2525 20.2224 69.4099 20.2836 69.5323 20.406C69.6548 20.5284 69.716 20.6858 69.716 20.8782V23.3442C69.716 23.5365 69.6548 23.6939 69.5323 23.8164C69.4099 23.9388 69.2525 24 69.0601 24H56.5991ZM80.0733 24.2623C78.4119 24.2623 76.9865 23.9913 75.7973 23.4491C74.6255 22.9069 73.7073 22.1112 73.0427 21.0618C72.3956 20.0125 72.0371 18.7095 71.9671 17.153C71.9497 16.436 71.9409 15.6664 71.9409 14.8445C71.9409 14.0225 71.9497 13.2355 71.9671 12.4834C72.0371 10.9619 72.4044 9.67642 73.069 8.62707C73.7335 7.56024 74.6605 6.75574 75.8497 6.21358C77.039 5.65392 78.4469 5.3741 80.0733 5.3741C81.2276 5.3741 82.2945 5.52276 83.2738 5.82007C84.2532 6.0999 85.1102 6.51963 85.8447 7.07929C86.5793 7.62145 87.1477 8.28604 87.5499 9.07305C87.9697 9.84257 88.1883 10.717 88.2058 11.6964C88.2233 11.8538 88.1708 11.985 88.0484 12.0899C87.9434 12.1949 87.8123 12.2473 87.6549 12.2473H84.1133C83.886 12.2473 83.7111 12.2036 83.5887 12.1162C83.4662 12.0112 83.3613 11.8276 83.2738 11.5652C83.029 10.6383 82.6268 10.0087 82.0671 9.67642C81.5249 9.32664 80.8516 9.15175 80.0471 9.15175C79.0852 9.15175 78.3244 9.42283 77.7648 9.96499C77.2051 10.4897 76.8991 11.3729 76.8466 12.6146C76.7941 14.0487 76.7941 15.5178 76.8466 17.0218C76.8991 18.2636 77.2051 19.1555 77.7648 19.6977C78.3244 20.2224 79.0852 20.4847 80.0471 20.4847C80.8516 20.4847 81.5337 20.3098 82.0933 19.96C82.653 19.6102 83.0465 18.9806 83.2738 18.0712C83.3438 17.8089 83.44 17.634 83.5624 17.5465C83.7023 17.4416 83.886 17.3891 84.1133 17.3891H87.6549C87.8123 17.3891 87.9434 17.4416 88.0484 17.5465C88.1708 17.6515 88.2233 17.7826 88.2058 17.94C88.1883 18.9194 87.9697 19.8026 87.5499 20.5896C87.1477 21.3591 86.5793 22.0237 85.8447 22.5834C85.1102 23.1255 84.2532 23.5453 83.2738 23.8426C82.2945 24.1224 81.2276 24.2623 80.0733 24.2623ZM98.467 24.2623C96.858 24.2623 95.4589 24 94.2696 23.4753C93.0804 22.9507 92.1535 22.1636 91.4889 21.1143C90.8243 20.0475 90.457 18.7183 90.3871 17.1268C90.3696 16.3747 90.3608 15.6227 90.3608 14.8707C90.3608 14.1187 90.3696 13.3579 90.3871 12.5884C90.457 11.0143 90.8243 9.69391 91.4889 8.62707C92.171 7.54275 93.1066 6.7295 94.2959 6.18734C95.4851 5.64518 96.8755 5.3741 98.467 5.3741C100.041 5.3741 101.423 5.64518 102.612 6.18734C103.819 6.7295 104.763 7.54275 105.445 8.62707C106.127 9.69391 106.495 11.0143 106.547 12.5884C106.582 13.3579 106.599 14.1187 106.599 14.8707C106.599 15.6227 106.582 16.3747 106.547 17.1268C106.477 18.7183 106.11 20.0475 105.445 21.1143C104.781 22.1636 103.854 22.9507 102.664 23.4753C101.475 24 100.076 24.2623 98.467 24.2623ZM98.467 20.4847C99.394 20.4847 100.146 20.2049 100.723 19.6452C101.318 19.0856 101.633 18.1936 101.668 16.9694C101.703 16.1999 101.72 15.4741 101.72 14.792C101.72 14.1099 101.703 13.4016 101.668 12.6671C101.633 11.8451 101.475 11.1805 101.195 10.6733C100.933 10.1486 100.566 9.76386 100.094 9.51902C99.6213 9.27417 99.0792 9.15175 98.467 9.15175C97.8724 9.15175 97.339 9.27417 96.8668 9.51902C96.3946 9.76386 96.0186 10.1486 95.7387 10.6733C95.4589 11.1805 95.3015 11.8451 95.2665 12.6671C95.249 13.4016 95.2403 14.1099 95.2403 14.792C95.2403 15.4741 95.249 16.1999 95.2665 16.9694C95.319 18.1936 95.6338 19.0856 96.2109 19.6452C96.7881 20.2049 97.5401 20.4847 98.467 20.4847ZM110.296 24C110.104 24 109.946 23.9388 109.824 23.8164C109.702 23.6939 109.64 23.5365 109.64 23.3442V6.29228C109.64 6.0999 109.702 5.94249 109.824 5.82007C109.946 5.69765 110.104 5.63643 110.296 5.63643H113.759C113.934 5.63643 114.083 5.69765 114.205 5.82007C114.345 5.94249 114.415 6.0999 114.415 6.29228V20.0387H122.337C122.53 20.0387 122.687 20.1087 122.81 20.2486C122.95 20.371 123.019 20.5284 123.019 20.7208V23.3442C123.019 23.5365 122.95 23.6939 122.81 23.8164C122.687 23.9388 122.53 24 122.337 24H110.296ZM125.949 24C125.757 24 125.599 23.9388 125.477 23.8164C125.355 23.6939 125.293 23.5365 125.293 23.3442V6.29228C125.293 6.0999 125.355 5.94249 125.477 5.82007C125.599 5.69765 125.757 5.63643 125.949 5.63643H129.412C129.587 5.63643 129.736 5.69765 129.858 5.82007C129.998 5.94249 130.068 6.0999 130.068 6.29228V20.0387H137.991C138.183 20.0387 138.34 20.1087 138.463 20.2486C138.603 20.371 138.673 20.5284 138.673 20.7208V23.3442C138.673 23.5365 138.603 23.6939 138.463 23.8164C138.34 23.9388 138.183 24 137.991 24H125.949ZM148.3 24.2623C146.726 24.2623 145.344 24.0087 144.155 23.5016C142.983 22.9769 142.074 22.1811 141.427 21.1143C140.78 20.03 140.456 18.6571 140.456 16.9956V6.29228C140.456 6.0999 140.517 5.94249 140.64 5.82007C140.762 5.69765 140.92 5.63643 141.112 5.63643H144.496C144.688 5.63643 144.846 5.69765 144.968 5.82007C145.091 5.94249 145.152 6.0999 145.152 6.29228V16.9694C145.152 18.1062 145.423 18.9631 145.965 19.5403C146.525 20.0999 147.303 20.3798 148.3 20.3798C149.279 20.3798 150.04 20.0999 150.582 19.5403C151.142 18.9631 151.422 18.1062 151.422 16.9694V6.29228C151.422 6.0999 151.483 5.94249 151.605 5.82007C151.745 5.69765 151.903 5.63643 152.078 5.63643H155.488C155.663 5.63643 155.812 5.69765 155.934 5.82007C156.074 5.94249 156.144 6.0999 156.144 6.29228V16.9956C156.144 18.6571 155.82 20.03 155.173 21.1143C154.526 22.1811 153.617 22.9769 152.445 23.5016C151.273 24.0087 149.891 24.2623 148.3 24.2623ZM160.278 24C160.104 24 159.946 23.9388 159.806 23.8164C159.684 23.6939 159.623 23.5365 159.623 23.3442V6.29228C159.623 6.0999 159.684 5.94249 159.806 5.82007C159.946 5.69765 160.104 5.63643 160.278 5.63643H163.112C163.392 5.63643 163.601 5.71514 163.741 5.87254C163.899 6.01245 163.995 6.12613 164.03 6.21358L168.647 14.5034L173.264 6.21358C173.317 6.12613 173.404 6.01245 173.526 5.87254C173.666 5.71514 173.885 5.63643 174.182 5.63643H176.989C177.182 5.63643 177.339 5.69765 177.462 5.82007C177.601 5.94249 177.671 6.0999 177.671 6.29228V23.3442C177.671 23.5365 177.601 23.6939 177.462 23.8164C177.339 23.9388 177.182 24 176.989 24H173.867C173.675 24 173.509 23.9388 173.369 23.8164C173.247 23.6939 173.185 23.5365 173.185 23.3442V13.5065L170.221 18.9894C170.151 19.1468 170.046 19.2867 169.906 19.4091C169.766 19.5315 169.574 19.5927 169.329 19.5927H167.965C167.72 19.5927 167.528 19.5315 167.388 19.4091C167.248 19.2867 167.134 19.1468 167.047 18.9894L164.082 13.5065V23.3442C164.082 23.5365 164.021 23.6939 163.899 23.8164C163.776 23.9388 163.619 24 163.427 24H160.278ZM181.978 24C181.785 24 181.628 23.9388 181.505 23.8164C181.383 23.6939 181.322 23.5365 181.322 23.3442V6.29228C181.322 6.0999 181.383 5.94249 181.505 5.82007C181.628 5.69765 181.785 5.63643 181.978 5.63643H185.493C185.685 5.63643 185.843 5.69765 185.965 5.82007C186.088 5.94249 186.149 6.0999 186.149 6.29228V23.3442C186.149 23.5365 186.088 23.6939 185.965 23.8164C185.843 23.9388 185.685 24 185.493 24H181.978ZM188.778 24C188.638 24 188.507 23.9475 188.384 23.8426C188.279 23.7202 188.227 23.589 188.227 23.4491C188.227 23.3616 188.236 23.2829 188.253 23.213L194.418 6.37098C194.471 6.1786 194.575 6.01245 194.733 5.87254C194.908 5.71514 195.144 5.63643 195.441 5.63643H199.324C199.621 5.63643 199.848 5.71514 200.006 5.87254C200.181 6.01245 200.294 6.1786 200.347 6.37098L206.486 23.213C206.521 23.2829 206.538 23.3616 206.538 23.4491C206.538 23.589 206.477 23.7202 206.354 23.8426C206.249 23.9475 206.118 24 205.961 24H202.734C202.472 24 202.271 23.9388 202.131 23.8164C202.008 23.6765 201.93 23.554 201.895 23.4491L200.872 20.7733H193.867L192.87 23.4491C192.835 23.554 192.757 23.6765 192.634 23.8164C192.512 23.9388 192.302 24 192.005 24H188.778ZM194.943 16.9956H199.822L197.356 10.0699L194.943 16.9956Z" fill="white"/>
<path d="M15.0014 18.9139H23.0633C23.9571 18.9139 24.7219 18.2723 24.8772 17.3921L25.2984 15.005L25.7861 12.2384H17.7242C16.8305 12.2384 16.0657 12.88 15.9104 13.7601L15.2852 17.3025L15.0014 18.9139Z" fill="#00DC5D"/>
<path d="M25.7861 12.2384H33.848C34.7418 12.2384 35.5065 11.5968 35.6619 10.7166L36.0831 8.3295L36.5708 5.56287H28.5089C27.6151 5.56287 26.8504 6.20448 26.695 7.08461L26.0698 10.627L25.7861 12.2384Z" fill="#00DC5D"/>
<path d="M4.21665 25.5896H12.2786C13.1723 25.5896 13.9371 24.948 14.0924 24.0678L14.5137 21.6807L15.0013 18.9141H6.93941C6.04567 18.9141 5.2809 19.5557 5.12557 20.4358L4.50036 23.9782L4.21665 25.5896Z" fill="#00DC5D"/>
<path d="M30.0696 24.477H38.1315C39.0252 24.477 39.79 23.8354 39.9453 22.9553L40.3666 20.5681L40.8542 17.8015H32.7923C31.8986 17.8015 31.1338 18.4431 30.9785 19.3233L30.3533 22.8656L30.0696 24.477Z" fill="#00DC5D"/>
<path d="M19.2849 31.1525H27.3468C28.2405 31.1525 29.0053 30.5108 29.1606 29.6307L29.5819 27.2436L30.0696 24.4769H22.0076C21.1139 24.4769 20.3491 25.1185 20.1938 25.9987L19.5686 29.5411L19.2849 31.1525Z" fill="#00DC5D"/>
<path d="M10.7846 6.67553H18.8466C19.7403 6.67553 20.5051 6.0339 20.6604 5.15375L21.0817 2.76664L21.5693 0H13.5074C12.6137 0 11.8489 0.64161 11.6936 1.52175L11.0684 5.06413L10.7846 6.67553Z" fill="#00DC5D"/>
<path d="M-2.09808e-05 13.3511H8.06188C8.95564 13.3511 9.72041 12.7094 9.87573 11.8293L10.297 9.44217L10.7847 6.67554H2.72273C1.82899 6.67554 1.06423 7.31715 0.908892 8.19728L0.283689 11.7397L-2.09808e-05 13.3511Z" fill="#00DC5D"/>
</svg>
