<svg width="14" height="14" viewBox="0 0 14 14" fill="none" xmlns="http://www.w3.org/2000/svg">
<path d="M0.5 7.98488L5.44444 3.04044L8.202 5.798L8.55556 6.15155L8.90911 5.798L13.5 1.20711V1.99012L8.55556 6.93456L5.798 4.177L5.44444 3.82345L5.09089 4.177L0.5 8.76789V7.98488ZM0.5 13.5V12.6516L1.05556 12.096V13.5H0.5ZM3.61111 13.5V9.54044L4.16667 8.98489V13.5H3.61111ZM6.72222 13.5V8.99557L7.27778 9.55807V13.5H6.72222ZM9.83333 13.5V9.55989L10.3889 9.00433V13.5H9.83333ZM12.9444 13.5V6.42933L13.5 5.87377V13.5H12.9444Z" fill="#00DC5D" stroke="#00DC5D"/>
</svg>
