<svg width="48" height="39" viewBox="0 0 48 39" fill="none" xmlns="http://www.w3.org/2000/svg">
<path d="M38.1985 38.3019C36.9175 39.0168 33.7646 38.9863 32.3068 38.9209C25.4748 38.6274 18.6443 38.6376 11.8152 38.9515C9.58962 39.0532 8.01821 38.995 7.10095 38.7771C-2.21538 36.5581 -2.43965 22.259 6.87237 19.6608C7.03135 19.6157 7.16689 19.5102 7.25053 19.3663C7.33417 19.2224 7.3594 19.0514 7.32093 18.8891C6.25127 14.4817 6.85511 10.3925 9.39553 6.61283C13.2773 0.840873 20.1266 -0.71982 26.6911 0.282861C27.7378 0.442708 28.2611 1.05739 28.2611 2.12692V2.40157C28.2612 2.69739 28.1474 2.98164 27.9437 3.19405C27.74 3.40646 27.4624 3.53032 27.1699 3.53939C26.3935 3.55974 25.6531 3.39262 24.9486 3.03805C24.8279 2.97993 24.7013 2.94214 24.5691 2.92471C18.8542 2.2577 13.0056 4.49848 10.7887 10.0743C9.76645 12.6463 9.97348 15.8244 10.2495 18.6494C10.2685 18.845 10.3474 19.0296 10.475 19.1774C10.6027 19.3252 10.7727 19.4286 10.9612 19.4733L13.5361 20.0749C14.4908 20.2958 14.9034 20.8988 14.774 21.8841L14.7265 22.2677C14.7084 22.4084 14.6621 22.5439 14.5904 22.6659C14.5186 22.7879 14.423 22.894 14.3092 22.9776C14.1954 23.0612 14.0659 23.1206 13.9286 23.1522C13.7912 23.1838 13.6489 23.1869 13.5102 23.1614C11.8885 22.8606 10.3185 22.2241 8.90815 22.3636C0.915946 23.1527 1.16611 35.4159 9.12381 35.8649C11.7117 36.0088 14.0666 36.1396 16.8098 35.987C21.6663 35.7211 26.5833 35.9085 31.4442 36.0742C34.2477 36.1657 37.2928 36.0829 39.7469 34.4525C42.03 32.9325 43.4692 30.8704 44.0644 28.2664C44.3792 26.8801 44.2412 25.2104 44.2067 23.7325C44.1866 22.9187 44.5719 22.4377 45.3626 22.2895L45.6645 22.2328C46.4783 22.0788 46.9498 22.4145 47.0792 23.2399C48.0756 29.5132 45.1685 35.1761 39.6477 37.8398C39.3027 38.0054 38.9389 38.1188 38.5565 38.1798C38.43 38.2002 38.3106 38.2409 38.1985 38.3019Z" fill="white"/>
<path d="M47.2724 11.8178C47.2724 13.0594 47.0278 14.2888 46.5527 15.4359C46.0775 16.583 45.3811 17.6253 44.5032 18.5032C43.6253 19.3811 42.583 20.0776 41.4359 20.5527C40.2889 21.0278 39.0594 21.2724 37.8178 21.2724C35.3103 21.2724 32.9055 20.2763 31.1324 18.5032C29.3594 16.7301 28.3633 14.3253 28.3633 11.8178C28.3633 9.31032 29.3594 6.90552 31.1324 5.13245C32.9055 3.35938 35.3103 2.36328 37.8178 2.36328C40.3253 2.36328 42.7301 3.35938 44.5032 5.13245C46.2763 6.90552 47.2724 9.31032 47.2724 11.8178ZM44.1632 11.7784C44.1632 10.0734 43.4859 8.43818 42.2803 7.23255C41.0747 6.02693 39.4395 5.34962 37.7345 5.34962C36.0295 5.34962 34.3943 6.02693 33.1887 7.23255C31.9831 8.43818 31.3058 10.0734 31.3058 11.7784C31.3058 13.4834 31.9831 15.1185 33.1887 16.3242C34.3943 17.5298 36.0295 18.2071 37.7345 18.2071C39.4395 18.2071 41.0747 17.5298 42.2803 16.3242C43.4859 15.1185 44.1632 13.4834 44.1632 11.7784Z" fill="white"/>
</svg>
