<svg width="48" height="40" viewBox="0 0 48 40" fill="none" xmlns="http://www.w3.org/2000/svg">
<path d="M6.72226 20.5264C6.85288 20.4992 6.97653 20.4446 7.08533 20.3661C7.19412 20.2877 7.2857 20.187 7.35424 20.0706C7.42278 19.9542 7.46679 19.8245 7.48346 19.6899C7.50013 19.5552 7.48911 19.4185 7.45109 19.2884C7.17887 18.3499 6.83641 17.4515 6.84959 16.4281C6.91544 10.9533 8.40383 6.73432 12.8339 3.31535C17.3298 -0.161715 24.0605 -1.06897 29.2282 1.38464C33.6319 3.47624 35.7394 6.66281 37.2893 11.2348C38.0488 13.4873 39.6777 13.313 41.3505 14.3275C44.5029 16.2314 47.0758 19.8247 47.6993 23.5476C48.2086 26.6314 48.1866 29.7509 46.7158 32.571C43.9907 37.803 39.3894 40.2685 32.9119 39.9676C26.651 39.6756 19.7358 39.6756 12.1665 39.9676C9.66978 40.0659 7.85502 39.9407 6.72226 39.5921C0.00471181 37.5229 -2.04567 28.79 2.25268 23.2884C3.38837 21.8344 4.87822 20.9137 6.72226 20.5264ZM20.3417 36.8882C22.5721 36.784 26.9876 36.8197 33.588 36.9955C34.6725 37.0268 36.218 37.0089 37.0258 36.781C42.4657 35.2436 45.6708 30.6581 44.8674 24.8794C44.4986 22.2336 43.4185 20.0601 41.6271 18.3588C38.9928 15.865 36.8678 15.7354 33.5792 16.5085C32.8446 16.6813 32.3221 16.732 32.0118 16.6605C30.7034 16.3655 30.7254 14.1756 31.7923 13.7689C32.4363 13.5216 33.1065 13.2564 33.8032 12.9734C33.8757 12.9428 33.9403 12.8959 33.992 12.8363C34.0438 12.7766 34.0813 12.7058 34.1017 12.6292C34.2598 12.0482 34.169 11.3808 33.8295 10.627C31.804 6.12799 28.4599 3.61181 23.7971 3.07848C18.9148 2.5243 13.6857 5.18796 11.3982 9.60356C9.58489 13.1119 10.261 15.7756 10.2435 19.5119C10.2428 19.6063 10.261 19.6999 10.297 19.787C10.3329 19.8742 10.3859 19.9531 10.4527 20.019C10.5195 20.0849 10.5988 20.1365 10.6859 20.1707C10.7729 20.2049 10.8658 20.221 10.9591 20.218C12.0802 20.1822 13.1486 20.3968 14.1642 20.8616C14.4516 20.9938 14.6851 21.2232 14.8251 21.5107C14.9652 21.7983 15.0032 22.1264 14.9326 22.4392L14.8755 22.7029C14.656 23.6861 14.0676 24.0481 13.1105 23.7889C11.8768 23.4537 10.8406 22.9085 9.62002 22.9264C6.43248 22.98 4.35575 24.4668 3.38983 27.3867C2.40195 30.3721 3.38543 34.4659 6.1427 36.1061C6.98276 36.6067 8.19308 36.8972 9.77368 36.9776C12.5631 37.1236 16.0858 37.0938 20.3417 36.8882Z" fill="white"/>
</svg>
