<svg width="32" height="32" viewBox="0 0 32 32" fill="none" xmlns="http://www.w3.org/2000/svg">
<path d="M12.9231 28.6666L12.4154 24.6051C12.0582 24.4854 11.6919 24.3179 11.3167 24.1025C10.9415 23.8871 10.606 23.6564 10.3103 23.4102L6.54873 24.9999L3.47187 19.6667L6.7257 17.2077C6.69492 17.0094 6.67312 16.8103 6.6603 16.6103C6.64748 16.4103 6.64107 16.2111 6.64107 16.0128C6.64107 15.8231 6.64748 15.6303 6.6603 15.4346C6.67312 15.2389 6.69492 15.0248 6.7257 14.7923L3.47187 12.3333L6.54873 7.02571L10.2974 8.60264C10.6188 8.34793 10.962 8.11502 11.3269 7.90391C11.6919 7.69278 12.0505 7.52311 12.4026 7.39491L12.9231 3.33337H19.0769L19.5846 7.40774C19.9846 7.55303 20.3465 7.72269 20.6705 7.91671C20.9944 8.11073 21.3214 8.33937 21.6513 8.60264L25.4513 7.02571L28.5281 12.3333L25.223 14.8307C25.2709 15.0461 25.297 15.2474 25.3012 15.4346C25.3055 15.6218 25.3076 15.8103 25.3076 16C25.3076 16.1812 25.3034 16.3654 25.2948 16.5526C25.2863 16.7398 25.2555 16.9539 25.2025 17.1949L28.482 19.6667L25.4051 24.9999L21.6513 23.3974C21.3214 23.6606 20.9846 23.8936 20.641 24.0961C20.2974 24.2987 19.9453 24.4641 19.5846 24.5923L19.0769 28.6666H12.9231ZM14.6667 26.6667H17.2872L17.7667 23.0949C18.447 22.9171 19.0688 22.6645 19.632 22.3372C20.1953 22.0098 20.7384 21.5889 21.2615 21.0744L24.5744 22.4667L25.8872 20.2L22.9949 18.0205C23.106 17.6752 23.1816 17.3368 23.2218 17.0051C23.262 16.6735 23.282 16.3385 23.282 16C23.282 15.653 23.262 15.318 23.2218 14.9949C23.1816 14.6718 23.106 14.3419 22.9949 14.0051L25.9128 11.8L24.6 9.53334L21.2487 10.9462C20.8026 10.4692 20.268 10.0479 19.6449 9.68207C19.0218 9.31625 18.3914 9.05727 17.7538 8.90514L17.3333 5.33334H14.6872L14.2462 8.89231C13.5658 9.053 12.9376 9.29915 12.3615 9.63077C11.7855 9.9624 11.2359 10.3898 10.7128 10.9128L7.4 9.53334L6.08717 11.8L8.96667 13.9462C8.85556 14.2624 8.77778 14.5915 8.73333 14.9333C8.68889 15.2752 8.66667 15.6351 8.66667 16.0128C8.66667 16.3598 8.68889 16.7 8.73333 17.0333C8.77778 17.3667 8.85128 17.6957 8.95383 18.0205L6.08717 20.2L7.4 22.4667L10.7 21.0667C11.206 21.5863 11.747 22.012 12.3231 22.3436C12.8991 22.6752 13.5359 22.9299 14.2333 23.1077L14.6667 26.6667ZM16.0154 20C17.1248 20 18.0688 19.6107 18.8474 18.832C19.626 18.0534 20.0153 17.1094 20.0153 16C20.0153 14.8906 19.626 13.9466 18.8474 13.168C18.0688 12.3894 17.1248 12 16.0154 12C14.8923 12 13.9449 12.3894 13.1731 13.168C12.4013 13.9466 12.0154 14.8906 12.0154 16C12.0154 17.1094 12.4013 18.0534 13.1731 18.832C13.9449 19.6107 14.8923 20 16.0154 20Z" fill="#00DC5D"/>
</svg>
