<svg width="41" height="41" viewBox="0 0 41 41" fill="none" xmlns="http://www.w3.org/2000/svg">
<path d="M18.5997 1.63857C18.1226 2.54344 18.4112 3.63306 19.2443 4.07231C20.0774 4.51156 21.1396 4.1341 21.6166 3.22923C22.0937 2.32436 21.8051 1.23474 20.972 0.795491C20.1389 0.356242 19.0768 0.733702 18.5997 1.63857Z" fill="white"/>
<path d="M5.46897 8.78571C6.04564 9.73415 7.24086 10.0605 8.13859 9.51471C9.03631 8.96889 9.29658 7.75755 8.71992 6.8091C8.14326 5.86066 6.94803 5.53428 6.05031 6.0801C5.15258 6.62592 4.89231 7.83727 5.46897 8.78571Z" fill="white"/>
<path d="M34.2259 9.38646C35.1654 8.78794 35.4712 7.58712 34.9088 6.70436C34.3464 5.82161 33.1289 5.59119 32.1894 6.18971C31.2499 6.78824 30.9442 7.98905 31.5066 8.87181C32.0689 9.75457 33.2864 9.98499 34.2259 9.38646Z" fill="white"/>
<path d="M33.4714 20.8373C33.4714 24.388 32.0609 27.7933 29.5501 30.304C27.0394 32.8148 23.6341 34.2253 20.0834 34.2253C16.5326 34.2253 13.1273 32.8148 10.6166 30.304C8.10583 27.7933 6.69531 24.388 6.69531 20.8373C6.69531 19.0791 7.04161 17.3382 7.71442 15.7139C8.38723 14.0896 9.37338 12.6137 10.6166 11.3705C13.1273 8.85974 16.5326 7.44922 20.0834 7.44922C21.8415 7.44922 23.5824 7.79551 25.2067 8.46832C26.8311 9.14114 28.3069 10.1273 29.5501 11.3705C30.7933 12.6137 31.7795 14.0896 32.4523 15.7139C33.1251 17.3382 33.4714 19.0791 33.4714 20.8373ZM27.9507 28.2209C28.9729 27.1772 29.5855 26.1502 29.7885 25.1399C30.0966 23.603 30.5373 21.9694 30.548 20.5292C30.6089 13.1992 22.8276 8.02243 16.0888 10.996C11.084 13.2028 8.57258 18.3581 9.89454 23.5779C10.4892 25.9281 11.8172 27.8436 13.8784 29.3244C18.138 32.3875 24.2248 32.022 27.9507 28.2209Z" fill="white"/>
<path d="M2.23711 19.1347L1.28416 19.1297C0.585725 19.126 0.0165666 19.6892 0.0129096 20.3877L0.00855772 21.2188C0.00490069 21.9173 0.568129 22.4864 1.26656 22.4901L2.21951 22.4951C2.91795 22.4987 3.48711 21.9355 3.49076 21.2371L3.49511 20.4059C3.49877 19.7075 2.93554 19.1383 2.23711 19.1347Z" fill="white"/>
<path d="M38.83 19.1972L38.2138 19.2036C37.4679 19.2114 36.8696 19.8224 36.8774 20.5683L36.8843 21.2275C36.8921 21.9734 37.5031 22.5717 38.249 22.5639L38.8652 22.5574C39.6111 22.5496 40.2094 21.9386 40.2016 21.1927L40.1947 20.5336C40.1869 19.7877 39.5759 19.1894 38.83 19.1972Z" fill="white"/>
<path d="M8.26385 35.252C9.18625 34.5365 9.42772 33.3038 8.80318 32.4987C8.17864 31.6935 6.9246 31.6208 6.00219 32.3363C5.07979 33.0518 4.83832 34.2845 5.46286 35.0897C6.0874 35.8948 7.34144 35.9675 8.26385 35.252Z" fill="white"/>
<path d="M32.4521 35.6021C33.5053 36.0427 34.6866 35.617 35.0905 34.6514C35.4944 33.6858 34.968 32.5459 33.9148 32.1053C32.8616 31.6648 31.6804 32.0904 31.2765 33.056C30.8725 34.0216 31.3989 35.1615 32.4521 35.6021Z" fill="white"/>
<path d="M20.3866 37.391L19.6566 37.4267C18.9057 37.4634 18.3266 38.1019 18.3634 38.8529L18.4019 39.6401C18.4386 40.3911 19.0772 40.9701 19.8281 40.9334L20.5581 40.8977C21.3091 40.861 21.8881 40.2224 21.8513 39.4714L21.8128 38.6842C21.7761 37.9332 21.1376 37.3542 20.3866 37.391Z" fill="white"/>
</svg>
