<svg width="41" height="32" viewBox="0 0 41 32" fill="none" xmlns="http://www.w3.org/2000/svg">
<g id="Group 3">
<path id="Vector" d="M15.0014 18.9138H23.0633C23.9571 18.9138 24.7218 18.2722 24.8772 17.392L25.2984 15.0049L25.7861 12.2383H17.7242C16.8304 12.2383 16.0657 12.8799 15.9103 13.76L15.2851 17.3024L15.0014 18.9138Z" fill="#00DC5D"/>
<path id="Vector_2" d="M25.7861 12.2385H33.848C34.7418 12.2385 35.5065 11.5969 35.6619 10.7167L36.0831 8.32962L36.5708 5.56299H28.5089C27.6151 5.56299 26.8504 6.2046 26.695 7.08473L26.0698 10.6271L25.7861 12.2385Z" fill="#00DC5D"/>
<path id="Vector_3" d="M4.21671 25.5896H12.2786C13.1724 25.5896 13.9371 24.948 14.0925 24.0678L14.5137 21.6807L15.0014 18.9141H6.93946C6.04572 18.9141 5.28096 19.5557 5.12562 20.4358L4.50042 23.9782L4.21671 25.5896Z" fill="#00DC5D"/>
<path id="Vector_4" d="M30.0696 24.477H38.1315C39.0252 24.477 39.79 23.8354 39.9453 22.9553L40.3666 20.5681L40.8542 17.8015H32.7923C31.8986 17.8015 31.1338 18.4431 30.9785 19.3233L30.3533 22.8656L30.0696 24.477Z" fill="#00DC5D"/>
<path id="Vector_5" d="M19.2849 31.1526H27.3468C28.2405 31.1526 29.0053 30.511 29.1606 29.6308L29.5819 27.2437L30.0696 24.4771H22.0076C21.1139 24.4771 20.3491 25.1187 20.1938 25.9988L19.5686 29.5412L19.2849 31.1526Z" fill="#00DC5D"/>
<path id="Vector_6" d="M10.7847 6.67553H18.8466C19.7403 6.67553 20.5051 6.0339 20.6604 5.15375L21.0817 2.76664L21.5694 0H13.5074C12.6137 0 11.8489 0.64161 11.6936 1.52175L11.0684 5.06413L10.7847 6.67553Z" fill="#00DC5D"/>
<path id="Vector_7" d="M9.53674e-07 13.3511H8.0619C8.95566 13.3511 9.72043 12.7094 9.87575 11.8293L10.297 9.44217L10.7847 6.67554H2.72275C1.82901 6.67554 1.06425 7.31715 0.908914 8.19728L0.28371 11.7397L9.53674e-07 13.3511Z" fill="#00DC5D"/>
</g>
</svg>
